<svg version="1.1" xmlns="http://www.w3.org/2000/svg" width="934" height="918">
  <path
    d="M0 0 C1.81395264 0.5561499 1.81395264 0.5561499 3.66455078 1.12353516 C58.47295014 18.0540965 108.76491293 45.1212105 152 83 C152.71293213 83.62390625 153.42586426 84.2478125 154.16040039 84.890625 C160.78710124 90.76853475 167.10760483 96.92139592 173.3684082 103.18310547 C175.05857346 104.87107855 176.75660834 106.55085724 178.45507812 108.23046875 C185.09014567 114.83128353 191.20750677 121.63338729 197 129 C198.02457144 130.2548728 199.05158878 131.50775622 200.08203125 132.7578125 C250.01008728 194.07171568 279.25803694 269.44675421 286.70166016 347.89331055 C286.88549259 349.80760493 287.08064233 351.72089965 287.29443359 353.63208008 C296.48283905 439.96515001 268.39886512 534.30305229 201.34814453 630.046875 C197.98182494 634.10501709 194.5139839 638.06951545 191 642 C189.79730469 643.35158203 189.79730469 643.35158203 188.5703125 644.73046875 C187.10043739 646.37072731 185.62542504 648.00640144 184.14453125 649.63671875 C182.67479074 651.25637814 181.21428095 652.88444815 179.76171875 654.51953125 C172.93207188 662.19846063 165.87648484 669.52631766 158.0625 676.2109375 C156.64444849 677.44098976 155.24952322 678.69805377 153.875 679.9765625 C146.69223925 686.64973549 138.97460371 692.53226794 131.13427734 698.40087891 C129.16289597 699.87794914 127.20007984 701.36571326 125.23828125 702.85546875 C105.29485035 717.87622211 83.50839988 730.25913125 61 741 C59.90776123 741.52327881 59.90776123 741.52327881 58.79345703 742.05712891 C39.66468542 751.14217356 19.71573249 758.85939309 -0.74365234 764.37402344 C-2.52549729 764.86835913 -4.30051997 765.3872834 -6.07275391 765.91503906 C-19.48326278 769.87864373 -33.13492418 772.34327324 -46.90802002 774.64855957 C-48.87578399 774.97913244 -50.84200556 775.31884953 -52.80810547 775.65917969 C-82.90119385 780.6713742 -113.60246304 779.39204275 -144 779 C-144.3304834 779.67909424 -144.6609668 780.35818848 -145.00146484 781.05786133 C-145.44184082 781.9527124 -145.8822168 782.84756348 -146.3359375 783.76953125 C-146.7695459 784.65487549 -147.2031543 785.54021973 -147.64990234 786.45239258 C-153.85572806 798.16266227 -166.0329738 803.63447769 -178 808 C-179.423125 808.52207031 -179.423125 808.52207031 -180.875 809.0546875 C-233.3902985 826.69654559 -307.51983607 827.95240211 -357.93847656 803.21679688 C-380.07077471 791.79888381 -396.5004948 773.31009734 -404.22167969 749.52636719 C-408.60690367 735.29227127 -412.70112638 720.73221825 -415 706 C-415.20367187 704.70320312 -415.40734375 703.40640625 -415.6171875 702.0703125 C-417.10480717 691.27366931 -417.20979356 680.44207011 -417.25 669.5625 C-417.25526703 668.83284027 -417.26053406 668.10318054 -417.26596069 667.35140991 C-417.31106418 659.2692511 -417.03903526 651.48994187 -415.42871094 643.53100586 C-414.56035994 638.75805181 -414.56035994 638.75805181 -415.97119141 634.28100586 C-416.42671387 633.76417236 -416.88223633 633.24733887 -417.3515625 632.71484375 C-418.12318726 631.81137207 -418.12318726 631.81137207 -418.91040039 630.88964844 C-419.47621826 630.24543945 -420.04203613 629.60123047 -420.625 628.9375 C-433.42351972 613.75395429 -444.18189323 597.23532046 -454 580 C-454.79470703 578.6080542 -454.79470703 578.6080542 -455.60546875 577.18798828 C-479.92193596 534.26595813 -495.58452065 487.71650747 -503 439 C-503.24339111 437.49687256 -503.24339111 437.49687256 -503.49169922 435.96337891 C-506.34119133 417.66958073 -506.31218813 399.28431469 -506.375 380.8125 C-506.38294586 379.58522186 -506.39089172 378.35794373 -506.39907837 377.09347534 C-506.68027135 320.47349673 -493.40691747 264.06591499 -469 213 C-468.54608887 212.04834961 -468.09217773 211.09669922 -467.62451172 210.11621094 C-452.99211137 179.66138106 -434.71329961 151.87037577 -413 126 C-412.21496094 125.02933594 -411.42992187 124.05867187 -410.62109375 123.05859375 C-403.86292572 114.81664704 -396.45018452 107.23509839 -388.9375 99.6875 C-388.43088837 99.17571198 -387.92427673 98.66392395 -387.40231323 98.1366272 C-381.34472985 92.03031772 -375.17003728 86.30200437 -368.41992188 80.94848633 C-366.05311911 79.04277074 -363.80193323 77.05294757 -361.5625 75 C-356.30773949 70.29837218 -350.70859153 66.12939793 -345 62 C-344.30535645 61.49194824 -343.61071289 60.98389648 -342.89501953 60.46044922 C-329.46558975 50.67123117 -315.52944952 42.0582907 -301 34 C-300.04722168 33.47132324 -299.09444336 32.94264648 -298.11279297 32.39794922 C-265.3357635 14.38666955 -229.63286753 1.04437543 -192.95166016 -6.39160156 C-190.86886524 -6.82090884 -188.79069755 -7.27296968 -186.71630859 -7.74121094 C-177.98039945 -9.70276034 -169.25825565 -11.02992411 -160.375 -12.125 C-159.04681289 -12.2950886 -157.7186876 -12.46566064 -156.390625 -12.63671875 C-104.86699689 -19.14119268 -49.70624441 -15.43049839 0 0 Z M-197.42431641 26.29003906 C-199.91314282 26.9760587 -202.40893065 27.60351277 -204.91796875 28.2109375 C-278.26488529 46.15359194 -349.97295116 92.73098622 -395.60351562 153.16650391 C-397.08463878 155.11112539 -398.59420385 157.03102699 -400.109375 158.94921875 C-430.54580103 197.69524309 -453.00481289 243.36243018 -464.68530273 291.25415039 C-465.19191533 293.33059706 -465.70754211 295.40465006 -466.22460938 297.47851562 C-468.86705578 308.13449984 -471.07862124 318.74322244 -472.5625 329.625 C-472.68818359 330.49511719 -472.81386719 331.36523438 -472.94335938 332.26171875 C-478.88349121 375.49095041 -476.72326336 421.70928643 -466.68603516 464.05761719 C-466.10829039 466.53554598 -465.57414764 469.01335764 -465.07421875 471.5078125 C-455.95289105 515.94310332 -433.64824295 560.07790989 -406.92578125 596.3828125 C-405.57192136 598.22274379 -404.26713289 600.09930066 -403 602 C-402.34 602 -401.68 602 -401 602 C-399.7477486 599.86526871 -398.52499571 597.71974103 -397.3125 595.5625 C-396.97283203 594.98951172 -396.63316406 594.41652344 -396.28320312 593.82617188 C-388.34879838 579.51458201 -387.25082883 564.99641701 -387.5625 549 C-387.58131042 547.08415884 -387.59887643 545.16830508 -387.61523438 543.25244141 C-387.7415064 532.28356521 -388.23488535 521.41585757 -389.27416992 510.49365234 C-389.95873973 503.20124883 -390.28848748 495.94936617 -390.375 488.625 C-390.40078125 487.62001465 -390.4265625 486.6150293 -390.453125 485.57958984 C-390.47990798 475.58451615 -387.85482656 466.96169378 -380.859375 459.65234375 C-373.23276555 452.8749156 -364.80060955 451.5321403 -354.88671875 451.6875 C-342.15425784 452.71121545 -330.86873816 459.16146158 -322.16796875 468.32421875 C-311.49135077 481.50166616 -306.96346272 496.57033655 -306.75390625 513.34375 C-306.72093708 515.16667091 -306.687726 516.98958746 -306.65429688 518.8125 C-306.60724319 521.64449782 -306.56282914 524.47648208 -306.52319336 527.30859375 C-307.09368828 551.55211379 -307.09368828 551.55211379 -297.3984375 572.8359375 C-289.14447035 580.56225379 -279.82601792 580.53381853 -269.0625 580.4375 C-267.98180237 580.43293793 -267.98180237 580.43293793 -266.87927246 580.42828369 C-251.13049136 580.33120748 -235.72347542 578.64806068 -220.1640625 576.32287598 C-217.95902614 575.99388674 -215.75304482 575.67187863 -213.546875 575.35058594 C-190.80978037 572.01374217 -168.36021177 567.61507376 -145.96948242 562.45379639 C-144.14890806 562.03431051 -142.32742238 561.61878506 -140.50585938 561.20361328 C-128.64170168 558.47456533 -117.07501928 555.14706569 -105.5 551.375 C-101.00079988 549.91418146 -96.50088074 548.45563187 -92 547 C-91.20126465 546.73848145 -90.4025293 546.47696289 -89.57958984 546.20751953 C-74.63748422 541.42145779 -55.36736273 539.71619764 -41 547 C-33.06839653 551.47054014 -26.89890472 558.30328585 -24 567 C-23.05549648 580.5017552 -24.55827639 591.08056358 -33.67578125 601.71484375 C-45.3916195 613.23377715 -62.88504791 617.43815527 -78.05581665 622.53143311 C-83.27642302 624.28525286 -88.49150127 626.05537151 -93.70703125 627.82421875 C-94.74802475 628.1769989 -95.78901825 628.52977905 -96.86155701 628.89324951 C-105.79058465 631.9219645 -114.70797106 634.98259587 -123.60565186 638.1022644 C-125.07027002 638.61510558 -126.53563913 639.12580745 -128.00177002 639.63430786 C-130.00973989 640.33124395 -132.01496868 641.03552128 -134.01953125 641.7421875 C-135.13432861 642.1326123 -136.24912598 642.52303711 -137.39770508 642.92529297 C-140.10390247 643.84813381 -140.10390247 643.84813381 -142 646 C-141.57847656 646.80824219 -141.15695312 647.61648438 -140.72265625 648.44921875 C-139.90087891 650.05216797 -139.90087891 650.05216797 -139.0625 651.6875 C-138.51722656 652.74324219 -137.97195313 653.79898438 -137.41015625 654.88671875 C-132.21278434 666.36124898 -134.75089167 679.63285983 -139 691 C-139.66 691.99 -140.32 692.98 -141 694 C-140.64116005 697.09963476 -139.37687033 699.15525107 -137.625 701.6875 C-131.6497484 711.17862428 -130.7429968 720.97116323 -132 732 C-132.92719824 735.61789119 -134.2391173 738.71969342 -136 742 C-137.00255108 743.99872243 -138.00279894 745.99860298 -139 748 C-131.53339644 748.05144153 -124.06683986 748.08603832 -116.60009766 748.10986328 C-114.06915581 748.11981372 -111.53822512 748.13337887 -109.00732422 748.15087891 C-89.36360485 748.28313365 -70.37406687 747.29150813 -51 744 C-49.28914583 743.73123986 -47.57819982 743.46306398 -45.8671875 743.1953125 C18.66440177 732.85364064 83.40165835 702.71265011 131.5234375 658.265625 C133.52227586 656.4370347 135.55004678 654.66960629 137.60546875 652.90625 C142.4328989 648.6915408 146.97866023 644.20741884 151.50854492 639.67675781 C152.92668284 638.26080053 154.35296665 636.85301711 155.77929688 635.4453125 C161.96161475 629.27588341 167.5799263 622.84387223 173 616 C174.02507823 614.74554115 175.0521327 613.49269194 176.08203125 612.2421875 C209.58795002 571.09677545 232.31734298 523.1170239 246 472 C246.49258301 470.16441528 246.49258301 470.16441528 246.99511719 468.29174805 C249.4576 458.9094805 251.23606332 449.5335585 252.625 439.9375 C252.73016937 439.22023743 252.83533875 438.50297485 252.94369507 437.76397705 C257.46383889 406.79374544 259.68906244 374.43455943 255.30761719 343.28759766 C254.97217896 340.7931086 254.70593804 338.29634563 254.4453125 335.79296875 C246.51452201 263.20411675 213.51689973 192.37959721 164.3359375 138.58203125 C162.44008397 136.48644734 160.58807519 134.36566073 158.7421875 132.2265625 C154.90832721 127.83789592 150.87205509 123.67987307 146.75 119.5625 C146.00202148 118.81532715 145.25404297 118.0681543 144.48339844 117.29833984 C139.73094478 112.59814473 134.91486644 108.2096778 129.6484375 104.08984375 C127.19446254 102.15344758 124.83370882 100.13494968 122.47900391 98.07983398 C75.77798053 57.54163972 15.20518068 32.42635463 -45 21 C-46.36064575 20.74138184 -46.36064575 20.74138184 -47.7487793 20.47753906 C-96.3015707 11.44246047 -149.77191626 12.96711752 -197.42431641 26.29003906 Z "
    fill="white" transform="translate(566,62)" />
  <path
    d="M0 0 C14.06971441 10.93050394 22.65363129 27.31954208 24.96875 44.9453125 C26.79427653 66.40386024 22.04742084 88.85324319 8.52734375 106.05078125 C2.82909414 112.73337738 -3.21883087 117.80864809 -11.03125 121.9453125 C-11.76085937 122.37714844 -12.49046875 122.80898438 -13.2421875 123.25390625 C-22.7611937 128.08020939 -37.08185349 127.676818 -47.09375 124.4453125 C-62.77434222 117.45427923 -71.75789529 105.37812051 -78.03125 89.9453125 C-84.97949415 71.15711375 -83.61567239 49.32749511 -76.03125 30.9453125 C-68.00086803 13.74027022 -56.82364499 1.21829998 -39.03125 -6.0546875 C-25.82396294 -9.67281824 -11.25081134 -7.62619429 0 0 Z "
    fill="white" transform="translate(588.03125,286.0546875)" />
  <path
    d="M0 0 C1.35335895 0.97272675 2.68662604 1.9739266 4 3 C4.82628906 3.62003906 5.65257812 4.24007813 6.50390625 4.87890625 C17.5325106 14.25063108 24.99698156 30.7039936 26.26928711 45.03271484 C26.364869 48.17326281 26.36089046 51.29599162 26.3125 54.4375 C26.31572266 55.47970703 26.31894531 56.52191406 26.32226562 57.59570312 C26.17326496 79.44461924 18.60593545 98.55012391 3 114 C-8.25092649 124.47640619 -21.00083865 127.65514469 -35.95458984 127.12744141 C-46.78760532 126.45247911 -56.99842914 119.93420318 -64.30859375 112.1484375 C-79.07302006 93.39454727 -82.30023771 71.88305696 -79.73925781 48.6328125 C-77.2236063 32.13376475 -67.54876053 14.88494131 -54.75 4.25 C-38.08745046 -7.94421878 -18.08279295 -11.79572918 0 0 Z "
    fill="white" transform="translate(359,258)" />
  <path
    d="M0 0 C0.72290222 0.05858185 1.44580444 0.1171637 2.19061279 0.17752075 C12.17343898 1.01068336 21.75893729 2.58760594 31.5625 4.6875 C33.22649865 5.00210428 34.89170872 5.31044079 36.55859375 5.609375 C58.850138 9.71182634 80.30870316 16.92012252 101.5625 24.6875 C102.75214355 25.11893311 102.75214355 25.11893311 103.96582031 25.55908203 C116.88434697 30.32895413 116.88434697 30.32895413 120.703125 35.6328125 C122.49887751 39.92629349 122.36719611 44.16619899 121.5625 48.6875 C119.5601035 52.692293 117.38251123 55.3462028 113.5625 57.6875 C104.66933075 60.65188975 97.45695053 57.51550098 89.1875 54.1875 C76.43069201 49.25771473 63.5636872 45.15491966 50.39453125 41.47900391 C48.07010647 40.82936726 45.75341325 40.15949546 43.4375 39.48046875 C29.15474805 35.54957978 14.21272968 33.76374585 -0.4375 31.6875 C-1.70932129 31.50429199 -2.98114258 31.32108398 -4.29150391 31.13232422 C-8.85898789 30.57377608 -13.39519563 30.52560096 -17.9921875 30.51953125 C-19.34281784 30.51453865 -19.34281784 30.51453865 -20.72073364 30.50944519 C-22.62175999 30.50440559 -24.5227951 30.50203594 -26.42382812 30.50219727 C-29.26968852 30.50003256 -32.11514661 30.48190537 -34.9609375 30.46289062 C-45.29213395 30.43186601 -55.37130189 30.88251355 -65.61865234 32.2199707 C-79.04344812 33.86352549 -79.04344812 33.86352549 -85 30.9375 C-88.68517408 27.53580085 -91.07906616 24.7723814 -91.67578125 19.63671875 C-91.85701525 14.11385099 -91.23686836 10.98678525 -87.4375 6.6875 C-83.19234038 3.43520902 -79.97641122 2.09033461 -74.6875 1.421875 C-74.04563751 1.33843338 -73.40377502 1.25499176 -72.74246216 1.16902161 C-70.64269213 0.90468423 -68.54119893 0.66836482 -66.4375 0.4375 C-65.70787048 0.35378143 -64.97824097 0.27006287 -64.22650146 0.18380737 C-42.73708771 -2.24934751 -21.51150778 -1.77514339 0 0 Z "
    fill="white" transform="translate(427.4375,520.3125)" />
  <path
    d="M0 0 C0.79100098 0.27779297 1.58200195 0.55558594 2.39697266 0.84179688 C4.93539013 1.73776659 7.46876466 2.64644556 10 3.5625 C10.77754639 3.84327393 11.55509277 4.12404785 12.35620117 4.41333008 C27.31087559 9.95394603 27.31087559 9.95394603 31.15625 16.0078125 C33.23105328 20.90665357 32.5828912 25.45533831 30.75 30.3125 C28.26491462 34.12888112 26.3727088 36.5424304 22 38 C14.11948176 38.76440534 8.07270381 37.40037408 0.875 34.3125 C-0.96166023 33.5721383 -2.80023567 32.83651139 -4.640625 32.10546875 C-5.54361328 31.74501465 -6.44660156 31.38456055 -7.37695312 31.01318359 C-31.02892503 21.87732326 -58.23065857 18.60154461 -82.01953125 28.66015625 C-89.85818311 32.19099658 -96.42915359 36.48559246 -102.75244141 42.31860352 C-106.80749032 46.05281193 -109.88165081 47.80385656 -115.375 48.3125 C-120.27086202 47.89044293 -124.09153587 47.04787335 -127.55078125 43.3359375 C-130.56018032 39.08039291 -131.55678661 35.44880391 -131.56640625 30.2734375 C-129.08810608 20.32605338 -117.78789897 12.91064695 -109.5625 7.75 C-107.38754787 6.47829269 -105.20027133 5.22738027 -103 4 C-102.03320312 3.45472656 -101.06640625 2.90945312 -100.0703125 2.34765625 C-68.97034759 -14.21370718 -32.30184365 -11.49251231 0 0 Z "
    fill="white" transform="translate(348,195)" />
  <path
    d="M0 0 C2.45858767 -0.00220019 4.91673409 -0.0205133 7.37524414 -0.03930664 C15.52685998 -0.07021046 23.6154457 0.16613479 31.73266602 0.94702148 C32.46586563 1.00799515 33.19906525 1.06896881 33.95448303 1.13179016 C40.25006455 1.82781976 44.1188236 4.17788319 48.26782227 8.87280273 C50.37404745 13.16626177 50.58415481 16.48929998 49.89282227 21.18530273 C48.20118168 25.90408962 46.03233609 28.3911309 41.89282227 31.18530273 C38.92241001 32.17544015 37.02435588 32.30118969 33.9284668 32.28295898 C32.91535431 32.27965576 31.90224182 32.27635254 30.85842896 32.27294922 C29.75860687 32.26465088 28.65878479 32.25635254 27.52563477 32.24780273 C26.38109833 32.24401611 25.23656189 32.24022949 24.05734253 32.23632812 C19.16603108 32.22006565 14.27480369 32.19239574 9.38354492 32.16479492 C-10.90196183 32.06013107 -30.9906908 32.26099086 -51.13134766 34.85986328 C-53.20241439 35.12702568 -55.27467614 35.38261588 -57.34741211 35.63647461 C-64.45164312 36.51837481 -71.51783421 37.52841515 -78.56640625 38.78369141 C-84.18356558 39.67157717 -88.38924107 40.10789835 -93.48217773 37.37280273 C-99.82966849 32.0832271 -99.82966849 32.0832271 -100.34545898 26.69702148 C-100.46479465 22.1559854 -100.44692688 18.93275086 -98.54467773 14.74780273 C-87.95969379 3.6199991 -68.0426358 4.74997513 -53.66967773 3.06030273 C-52.58257507 2.9306311 -52.58257507 2.9306311 -51.47351074 2.79833984 C-34.3429572 0.77319565 -17.24562357 -0.00171649 0 0 Z "
    fill="white" transform="translate(633.107177734375,232.814697265625)" />
</svg>